<svg xmlns="http://www.w3.org/2000/svg" x="0px" y="0px" viewBox="0 0 864 864" enable-background="new 0 0 864 864"><style>.ls0{fill:#000}</style><g><path class="ls0" d="M135,443.5C135,443.5,135,443.5,135,443.5c0.3,9,5.1,16.9,12.2,21.5c-5.8,6.1-8.7,14.8-7,23.7	c1.7,8.9,7.6,15.9,15.3,19.4c-4.8,6.9-6.4,16-3.3,24.5c3.1,8.5,10,14.6,18.1,16.8c-3.7,7.6-3.8,16.8,0.5,24.7	c4.4,8,12.1,12.8,20.5,13.8c-2.5,8.1-1.2,17.2,4.3,24.4c2.1,2.7,5.1,4.4,8.5,4.8c3.4,0.4,6.7-0.6,9.3-2.8l31.6-26.4	c-30.8-36.8-49.8-81.3-55-128.9h176.4v243.3c0,11.7,8.5,21.7,20.1,23.5c0,0,0,0,0,0c9,1.4,17.6-1.9,23.4-7.9c0,0,0.1,0.1,0.1,0.1	c1.4,2,4,2.9,6.4,2.1c2.4-0.8,4-3,4-5.4V137.2c-3.5-1.3-7.4-1.9-11.4-1.6c-9,0.7-16.7,5.8-21,13c-6.3-5.6-15.1-8.2-24-6.1	c-8.8,2-15.6,8.2-18.8,16.1c-7.1-4.6-16.2-5.8-24.6-2.4c0,0,0,0,0,0c-8.4,3.4-14.2,10.6-16.1,18.8c-7.7-3.4-16.9-3.2-24.7,1.5	c-7.8,4.7-12.4,12.6-13,21c-8.1-2.2-17.2-0.6-24.2,5.2c-7,5.8-10.3,14.3-9.6,22.7c-8.4-0.9-17,2-23.1,8.8c-6,6.8-8,15.7-6.1,23.9	c-8.4,0.3-16.5,4.6-21.5,12.2c-5,7.6-5.5,16.8-2.4,24.6c-8.3,1.6-15.7,7.1-19.4,15.4c-3.7,8.3-2.9,17.5,1.4,24.7	c-7.9,2.9-14.4,9.4-16.8,18.2c-2.4,8.8-0.2,17.7,5.2,24.2c-7.4,4.1-12.8,11.5-13.8,20.5c-1,9,2.5,17.5,8.8,23.1	C138.8,426.2,134.6,434.4,135,443.5z M259.9,259.9c30.1-30.1,66.7-51.3,106.6-62.4V405H190.1C196.1,350.2,220.4,299.4,259.9,259.9z"/><path class="ls0" d="M568.8,487.7l100-112.7l33.7-38c0.3-0.3,0.4-0.8,0.3-1.2c-0.1-0.4-0.4-0.8-0.8-0.9c0,0,0,0,0,0	c4.3-7.3,5.1-16.4,1.4-24.7c-3.7-8.3-11.1-13.8-19.4-15.3c3.1-7.8,2.5-17-2.4-24.6c-4.9-7.6-13.1-11.9-21.5-12.2	c1.9-8.2-0.1-17.2-6.2-23.9s-14.7-9.7-23.1-8.8c0.6-8.4-2.7-17-9.7-22.7c-7-5.8-16-7.4-24.2-5.2c-0.7-8.4-5.2-16.4-13-21	c-7.8-4.7-17-4.9-24.7-1.5c-1.9-8.2-7.7-15.4-16.1-18.8c-8.4-3.4-17.6-2.2-24.6,2.4c-3.2-7.8-10-14-18.8-16.1	c-8.8-2-17.7,0.5-24,6.1c-4.3-7.2-12-12.3-21-13c-3.9-0.3-7.6,0.3-11.1,1.5V254h54v-56.5c39.9,11.1,76.5,32.3,106.6,62.4	c17.4,17.4,31.8,36.9,43,58.1L520.4,460.8l-22.9,25.9l-54,60.9v166.9c0,2.6,1.7,4.9,4.1,5.6c2.5,0.8,5.1-0.1,6.6-2.2	c5.8,6.1,14.4,9.3,23.4,7.9c9-1.4,16.2-7,20-14.6c6.7,5.1,15.7,7,24.4,4.2c8.7-2.7,14.9-9.5,17.5-17.5c7.4,4,16.6,4.5,24.8,0.4	c8.1-4,13.3-11.6,14.6-20c7.9,2.8,17.1,1.8,24.5-3.4c7.4-5.2,11.3-13.5,11.3-22c8.3,1.6,17.1-0.8,23.7-7.1	c6.5-6.3,9.2-15.1,7.9-23.4c8.4,0.3,16.9-3.3,22.4-10.5c5.5-7.2,6.8-16.3,4.3-24.4c8.4-1,16.2-5.9,20.5-13.8c0,0,0,0,0,0	c3.9-7.2,1.3-16.1-5.8-20.1l-34.6-19.3c-11.9,25.6-28.3,49.1-48.8,69.6c-30.1,30.1-66.7,51.3-106.6,62.4v-98.4L568.8,487.7z"/></g></svg>